<?xml version="1.0" encoding="UTF-8"?>
<svg version="1.1" xmlns="http://www.w3.org/2000/svg" width="83" height="83">
<path d="M0 0 C6.18841049 3.59260072 6.18841049 3.59260072 7.37890625 7.8203125 C7.61639587 10.5709385 7.70075594 13.21981898 7.578125 15.9765625 C8.16980469 15.60402344 8.76148438 15.23148438 9.37109375 14.84765625 C10.16128906 14.37457031 10.95148437 13.90148438 11.765625 13.4140625 C12.54292969 12.93839844 13.32023437 12.46273438 14.12109375 11.97265625 C17.90532027 10.43851036 20.32182407 11.52517298 24.03515625 12.859375 C26.81458519 14.3251435 28.57080308 15.5367005 30.578125 17.9765625 C31.98100192 23.24029816 32.01267556 27.71844889 30.578125 32.9765625 C27.65885498 36.2437248 24.54044648 38.15813996 20.578125 39.9765625 C21.3 40.2240625 22.021875 40.4715625 22.765625 40.7265625 C26.01026191 42.16862335 28.11561877 43.39517666 30.578125 45.9765625 C32.11315319 51.64435889 32.08483205 56.30425359 30.578125 61.9765625 C27.12065182 65.90580305 23.18827762 67.69008233 18.015625 68.2578125 C15.15989246 67.9283049 13.6327004 67.08135938 11.265625 65.4765625 C10.56824219 65.0125 9.87085938 64.5484375 9.15234375 64.0703125 C8.63285156 63.709375 8.11335938 63.3484375 7.578125 62.9765625 C7.62195312 63.68941406 7.66578125 64.40226562 7.7109375 65.13671875 C7.69863004 69.70893929 7.65896499 72.80797904 4.4609375 76.265625 C-3.10855781 81.72374773 -3.10855781 81.72374773 -8.421875 80.9765625 C-12.34998496 79.27399413 -15.51213926 77.12251295 -18.421875 73.9765625 C-19.53155981 70.24762166 -19.65969923 66.84470367 -19.421875 62.9765625 C-19.91816406 63.34910156 -20.41445313 63.72164063 -20.92578125 64.10546875 C-24.41743113 66.53703518 -26.59250332 67.94694208 -30.921875 68.1015625 C-32.654375 67.5446875 -32.654375 67.5446875 -34.421875 66.9765625 C-35.51822266 66.66138672 -35.51822266 66.66138672 -36.63671875 66.33984375 C-39.36854398 65.20198333 -40.64360896 64.36817588 -42.421875 61.9765625 C-43.7315837 56.34302095 -43.82570957 51.59770177 -42.421875 45.9765625 C-39.47755099 42.87432492 -36.44091245 41.3545182 -32.421875 39.9765625 C-33.14375 39.64527344 -33.865625 39.31398437 -34.609375 38.97265625 C-37.76747263 37.22254381 -40.00374924 35.67402348 -42.421875 32.9765625 C-43.93005128 27.69214485 -43.89520785 23.26663952 -42.421875 17.9765625 C-39.61523167 14.47626208 -36.69064444 12.37142801 -32.421875 10.9765625 C-27.11498518 11.34509651 -23.84525066 13.23406959 -19.421875 15.9765625 C-19.47730469 15.26371094 -19.53273438 14.55085938 -19.58984375 13.81640625 C-19.61166184 10.57423758 -19.41319387 8.07495245 -18.421875 4.9765625 C-12.62062306 -0.78594986 -7.63469952 -3.22627625 0 0 Z M-6.421875 1.9765625 C-8.401875 3.2965625 -10.381875 4.6165625 -12.421875 5.9765625 C-9.14372188 9.21060886 -9.14372188 9.21060886 -4.796875 9.9140625 C-2.3332021 8.94156004 -1.09455872 8.00139016 0.578125 5.9765625 C-2.886875 3.9965625 -2.886875 3.9965625 -6.421875 1.9765625 Z M-14.421875 9.9765625 C-14.421875 17.5665625 -14.421875 25.1565625 -14.421875 32.9765625 C-12.111875 33.9665625 -9.801875 34.9565625 -7.421875 35.9765625 C-7.2474791 32.39384474 -7.14099842 28.81221648 -7.046875 25.2265625 C-6.99660156 24.21078125 -6.94632813 23.195 -6.89453125 22.1484375 C-6.58719219 16.90431154 -6.58719219 16.90431154 -8.74902344 12.38085938 C-11.36227476 10.58733197 -11.36227476 10.58733197 -14.421875 9.9765625 Z M-3.09472656 12.38085938 C-6.00173685 15.87611678 -5.00932154 20.93405285 -4.796875 25.2265625 C-4.76980469 26.2578125 -4.74273437 27.2890625 -4.71484375 28.3515625 C-4.64418299 30.89535 -4.54559578 33.43489349 -4.421875 35.9765625 C1.73404994 33.67449503 7.22609293 30.27397567 12.890625 26.9765625 C14.01275391 26.33460937 15.13488281 25.69265625 16.29101562 25.03125 C17.35126953 24.41507813 18.41152344 23.79890625 19.50390625 23.1640625 C20.47755127 22.60074219 21.45119629 22.03742187 22.4543457 21.45703125 C23.15519287 20.96847656 23.85604004 20.47992188 24.578125 19.9765625 C24.578125 19.3165625 24.578125 18.6565625 24.578125 17.9765625 C22.47055127 16.07734531 22.47055127 16.07734531 19.578125 14.9765625 C15.91816031 15.6774068 13.60728175 16.95692632 10.515625 19.0390625 C7.578125 20.9765625 7.578125 20.9765625 2.578125 21.9765625 C2.578125 18.0165625 2.578125 14.0565625 2.578125 9.9765625 C0.38684307 9.9765625 -1.34979355 11.19810143 -3.09472656 12.38085938 Z M-34.171875 17.4140625 C-34.914375 18.2596875 -35.656875 19.1053125 -36.421875 19.9765625 C-33.79719866 21.456306 -31.17215007 22.93538193 -28.546875 24.4140625 C-27.80050781 24.83494141 -27.05414063 25.25582031 -26.28515625 25.68945312 C-25.56972656 26.09228516 -24.85429687 26.49511719 -24.1171875 26.91015625 C-23.45734863 27.28197021 -22.79750977 27.65378418 -22.11767578 28.03686523 C-20.90072849 28.71121452 -19.66628897 29.35435552 -18.421875 29.9765625 C-17.77391607 25.9075832 -17.77391607 25.9075832 -18.421875 21.9765625 C-21.0893948 19.35378098 -24.05761031 17.58628518 -27.421875 15.9765625 C-28.07671875 15.65558594 -28.7315625 15.33460937 -29.40625 15.00390625 C-31.78285874 14.74540431 -31.78285874 14.74540431 -34.171875 17.4140625 Z M22.76171875 24.1640625 C21.61606445 24.84082031 21.61606445 24.84082031 20.44726562 25.53125 C19.64482422 26.00820313 18.84238281 26.48515625 18.015625 26.9765625 C17.20931641 27.45351563 16.40300781 27.93046875 15.57226562 28.421875 C13.57306183 29.60483583 11.57508192 30.78981396 9.578125 31.9765625 C10.26029562 35.02546652 10.26029562 35.02546652 12.390625 36.2265625 C15.04129359 37.13536316 15.94284086 36.83910577 18.578125 35.9765625 C20.18403215 35.16563256 21.76753506 34.30910673 23.328125 33.4140625 C24.12734375 32.95902344 24.9265625 32.50398438 25.75 32.03515625 C26.35328125 31.68582031 26.9565625 31.33648437 27.578125 30.9765625 C27.578125 28.0065625 27.578125 25.0365625 27.578125 21.9765625 C25.76281189 21.9765625 24.28652123 23.26047585 22.76171875 24.1640625 Z M-38.421875 22.9765625 C-39.33342706 27.06917003 -39.33342706 27.06917003 -38.421875 30.9765625 C-35.45680596 33.46479295 -32.39166698 35.36911392 -29.046875 37.3125 C-28.180625 37.86164062 -27.314375 38.41078125 -26.421875 38.9765625 C-26.421875 39.6365625 -26.421875 40.2965625 -26.421875 40.9765625 C-28.609375 42.484375 -28.609375 42.484375 -31.421875 44.1015625 C-32.35 44.64039062 -33.278125 45.17921875 -34.234375 45.734375 C-34.95625 46.14429687 -35.678125 46.55421875 -36.421875 46.9765625 C-34.01082599 49.89520077 -32.17186307 50.61507254 -28.421875 50.9765625 C-26.03983511 50.1300545 -26.03983511 50.1300545 -23.77734375 48.66796875 C-22.93623047 48.16845703 -22.09511719 47.66894531 -21.22851562 47.15429688 C-20.36419922 46.62126953 -19.49988281 46.08824219 -18.609375 45.5390625 C-17.72572266 45.00990234 -16.84207031 44.48074219 -15.93164062 43.93554688 C-13.75353509 42.62868356 -11.58447133 41.30887914 -9.421875 39.9765625 C-13.43132665 36.55101158 -17.64072962 34.00890135 -22.234375 31.4765625 C-22.90791016 31.09886719 -23.58144531 30.72117187 -24.27539062 30.33203125 C-28.92627012 27.74178066 -33.6466848 25.32939977 -38.421875 22.9765625 Z M-1.421875 38.9765625 C1.78779248 42.52240463 5.40561675 44.92006933 9.515625 47.2890625 C10.42731445 47.8469043 10.42731445 47.8469043 11.35742188 48.41601562 C14.13199515 50.0232927 16.09302913 50.99101216 19.33203125 50.89453125 C21.70513663 49.9246534 22.95590182 48.94030635 24.578125 46.9765625 C22.51584246 45.70537517 20.45330609 44.43460285 18.390625 43.1640625 C17.81248047 42.80763672 17.23433594 42.45121094 16.63867188 42.08398438 C14.95315507 41.04601075 13.26566475 40.01124397 11.578125 38.9765625 C10.67449219 38.39519531 9.77085938 37.81382813 8.83984375 37.21484375 C4.54957801 34.86594178 2.36939817 36.51735828 -1.421875 38.9765625 Z M-4.421875 42.9765625 C-4.421875 53.8665625 -4.421875 64.7565625 -4.421875 75.9765625 C-0.67017076 74.32578348 -0.67017076 74.32578348 2.578125 71.9765625 C2.81340273 69.62668988 2.99198917 67.27100211 3.140625 64.9140625 C3.22441406 63.62371094 3.30820312 62.33335938 3.39453125 61.00390625 C3.45511719 60.00488281 3.51570313 59.00585938 3.578125 57.9765625 C7.02482125 58.55000583 9.80000665 59.41517828 12.890625 61.0390625 C13.58800781 61.40128906 14.28539063 61.76351562 15.00390625 62.13671875 C15.52339844 62.41386719 16.04289062 62.69101563 16.578125 62.9765625 C17.55839099 58.87832748 17.55839099 58.87832748 16.578125 54.9765625 C10.36058705 49.80922154 2.75918358 46.56709179 -4.421875 42.9765625 Z M-12.640625 45.34765625 C-13.49011719 45.83943359 -14.33960938 46.33121094 -15.21484375 46.83789062 C-16.55482422 47.6180957 -16.55482422 47.6180957 -17.921875 48.4140625 C-18.81519531 48.93033203 -19.70851563 49.44660156 -20.62890625 49.97851562 C-24.75813053 52.15946025 -24.75813053 52.15946025 -28.421875 54.9765625 C-28.49335699 56.32900167 -28.50586954 57.68490617 -28.484375 59.0390625 C-28.46375 60.3384375 -28.443125 61.6378125 -28.421875 62.9765625 C-23.81256218 61.34186435 -19.82601434 58.94736712 -15.671875 56.4140625 C-14.64513672 55.7962793 -14.64513672 55.7962793 -13.59765625 55.16601562 C-10.32915011 53.31366397 -10.32915011 53.31366397 -7.421875 50.9765625 C-7.35039301 49.62412333 -7.33788046 48.26821883 -7.359375 46.9140625 C-7.38 45.6146875 -7.400625 44.3153125 -7.421875 42.9765625 C-9.33498917 42.9765625 -11.03374815 44.41663814 -12.640625 45.34765625 Z M-38.421875 50.9765625 C-38.709678 54.02727425 -38.8691622 56.93716512 -38.421875 59.9765625 C-35.9995282 62.08017946 -34.63941866 62.9765625 -31.421875 62.9765625 C-31.421875 60.3365625 -31.421875 57.6965625 -31.421875 54.9765625 C-34.886875 52.9965625 -34.886875 52.9965625 -38.421875 50.9765625 Z M20.578125 53.9765625 C20.1308378 57.01595988 20.290322 59.92585075 20.578125 62.9765625 C22.888125 61.6565625 25.198125 60.3365625 27.578125 58.9765625 C27.578125 56.3365625 27.578125 53.6965625 27.578125 50.9765625 C24.36058134 50.9765625 23.0004718 51.87294554 20.578125 53.9765625 Z M-14.421875 58.9765625 C-15.44471313 63.35933818 -15.24582049 67.563375 -14.421875 71.9765625 C-12.56680014 74.42438317 -11.36586803 74.83501418 -8.421875 75.9765625 C-8.091875 75.9765625 -7.761875 75.9765625 -7.421875 75.9765625 C-7.421875 69.3765625 -7.421875 62.7765625 -7.421875 55.9765625 C-10.51563777 55.9765625 -12.01599709 57.08373125 -14.421875 58.9765625 Z " fill="#000000" transform="translate(48.421875,2.0234375)"/>
</svg>
